<svg width="41" height="40" viewBox="0 0 41 40" fill="none" xmlns="http://www.w3.org/2000/svg">
<rect x="0.5" width="40" height="40" rx="8" fill="#0F6646"/>
<path d="M18.44 29.984C18.44 30.5303 18.657 31.0543 19.0434 31.4406C19.4297 31.827 19.9537 32.044 20.5 32.044C21.0463 32.044 21.5703 31.827 21.9566 31.4406C22.343 31.0543 22.56 30.5303 22.56 29.984C22.56 29.7135 22.5067 29.4456 22.4032 29.1957C22.2997 28.9457 22.1479 28.7186 21.9566 28.5274C21.7654 28.3361 21.5383 28.1843 21.2883 28.0808C21.0384 27.9773 20.7705 27.924 20.5 27.924C20.2295 27.924 19.9616 27.9773 19.7117 28.0808C19.4617 28.1843 19.2346 28.3361 19.0434 28.5274C18.8521 28.7186 18.7003 28.9457 18.5968 29.1957C18.4933 29.4456 18.44 29.7135 18.44 29.984ZM24.13 22.208C27.028 20.612 28.5 18.298 28.5 15.332C28.5 10.238 24.482 7.95599 20.5 7.95599C16.622 7.95599 12.5 10.774 12.5 15.998C12.5 16.5284 12.7107 17.0371 13.0858 17.4122C13.4609 17.7873 13.9696 17.998 14.5 17.998C15.0304 17.998 15.5391 17.7873 15.9142 17.4122C16.2893 17.0371 16.5 16.5284 16.5 15.998C16.5 13.22 18.574 11.956 20.5 11.956C21.994 11.956 24.5 12.394 24.5 15.332C24.5 16.374 24.226 17.59 22.202 18.706C20.826 19.46 18.5 21.418 18.5 23.956C18.5 24.4864 18.7107 24.9951 19.0858 25.3702C19.4609 25.7453 19.9696 25.956 20.5 25.956C21.0304 25.956 21.5391 25.7453 21.9142 25.3702C22.2893 24.9951 22.5 24.4864 22.5 23.956C22.5 23.584 23.29 22.67 24.13 22.208Z" fill="white"/>
</svg>
